<svg xmlns="http://www.w3.org/2000/svg" viewBox="0 0 64 64">
  <defs>
    <radialGradient id="bg" cx="0.5" cy="0.45" r="0.65">
      <stop offset="0" stop-color="#3d1b6e"/>
      <stop offset="1" stop-color="#1a0b2e"/>
    </radialGradient>
    <linearGradient id="gold" x1="0" y1="0" x2="0" y2="1">
      <stop offset="0" stop-color="#ffe97a"/>
      <stop offset="0.5" stop-color="#ffd24a"/>
      <stop offset="1" stop-color="#c98a14"/>
    </linearGradient>
    <linearGradient id="capLight" x1="0" y1="0" x2="0" y2="1">
      <stop offset="0" stop-color="#ffffff" stop-opacity="0.95"/>
      <stop offset="1" stop-color="#d6d6e0" stop-opacity="0.85"/>
    </linearGradient>
    <radialGradient id="glow" cx="0.5" cy="0.5" r="0.5">
      <stop offset="0" stop-color="#ffd24a" stop-opacity="0.55"/>
      <stop offset="1" stop-color="#ffd24a" stop-opacity="0"/>
    </radialGradient>
  </defs>

  <rect width="64" height="64" rx="14" fill="url(#bg)"/>

  <circle cx="32" cy="34" r="22" fill="url(#glow)"/>

  <g transform="translate(32 34)">
    <circle r="18" fill="url(#capLight)"/>
    <path d="M -18 0 A 18 18 0 0 1 18 0 Z" fill="url(#gold)"/>
    <ellipse cx="-6" cy="-9" rx="5" ry="2.2" fill="#ffffff" opacity="0.55"/>
    <circle r="18" fill="none" stroke="#1a0b2e" stroke-opacity="0.25" stroke-width="1.2"/>

    <path d="M 0 -7 L 2.2 -2.2 L 7.2 -2.2 L 3.2 0.8 L 4.7 5.6 L 0 2.7 L -4.7 5.6 L -3.2 0.8 L -7.2 -2.2 L -2.2 -2.2 Z"
          fill="#1a0b2e"/>
  </g>

  <g fill="#ffd24a" opacity="0.9">
    <circle cx="12" cy="12" r="1.4"/>
    <circle cx="54" cy="14" r="1"/>
    <circle cx="52" cy="52" r="1.2"/>
    <circle cx="10" cy="48" r="0.9"/>
  </g>
</svg>
